<svg width="286" height="320" viewBox="0 0 286 320" fill="none" xmlns="http://www.w3.org/2000/svg">
<g clip-path="url(#clip0)">
<path d="M285.031 95.1911C285.028 89.81 283.876 85.0555 281.547 80.9755C279.259 76.9622 275.831 73.6 271.235 70.94C233.291 49.0844 195.311 27.2955 157.38 5.41776C147.154 -0.478911 137.239 -0.264467 127.088 5.71776C111.986 14.6155 36.3718 57.8911 13.84 70.9278C4.56135 76.2944 0.0456308 84.5067 0.0434041 95.1811C0.0289307 139.134 0.0434041 183.086 0.0289307 227.04C0.0311574 232.302 1.13448 236.964 3.36117 240.984C5.65021 245.118 9.12495 248.573 13.8277 251.293C36.3607 264.33 111.985 307.602 127.084 316.502C137.239 322.488 147.154 322.701 157.383 316.802C195.315 294.923 233.298 273.136 271.247 251.28C275.95 248.561 279.425 245.103 281.714 240.973C283.937 236.953 285.043 232.291 285.045 227.028C285.045 227.028 285.045 139.146 285.031 95.1911Z" fill="#A9B9CB"/>
<path d="M157.123 5.70344C146.914 -0.178779 137.015 0.0356663 126.881 6.00233C111.803 14.8768 36.3128 58.0401 13.8177 71.0434C4.55356 76.3957 0.0456308 84.5868 0.0434041 95.2334C0.0289307 139.072 0.0434041 182.91 0.0289307 226.75C0.0311574 231.999 1.13225 236.649 3.3556 240.658C5.6413 244.781 9.11048 248.228 13.8054 250.94C18.9591 253.919 26.8973 258.482 36.2494 263.851L244.547 55.9712C215.402 39.2223 186.249 22.4868 157.123 5.70344Z" fill="#7F8B99"/>
<path d="M171.992 141.076L216.346 141.388C216.346 122.944 197.64 77.7778 144.009 77.7778C109.839 77.7778 63.9026 99.4578 63.9026 161.789C63.9026 224.119 108.934 244.444 144.009 244.444C200.808 244.444 214.383 205.22 214.383 183.053L172.068 180.639C172.068 180.639 173.201 206.278 143.783 206.278C116.628 206.278 112.097 173.08 112.097 161.789C112.097 144.626 118.213 117.073 143.783 117.073C169.354 117.073 171.992 141.076 171.992 141.076Z" fill="white"/>
</g>
<defs>
<clipPath id="clip0">
<rect width="285.016" height="320" fill="white" transform="translate(0.0289307)"/>
</clipPath>
</defs>
</svg>
