<svg width="321" height="320" viewBox="0 0 321 320" fill="none" xmlns="http://www.w3.org/2000/svg">
<g clip-path="url(#clip0)">
<path d="M313.984 145.742L174.267 6.03557C166.227 -2.01186 153.176 -2.01186 145.125 6.03557L116.113 35.0477L152.916 71.851C161.469 68.9613 171.276 70.8995 178.094 77.718C184.945 84.5787 186.869 94.4694 183.909 103.051L219.378 138.52C227.959 135.563 237.86 137.477 244.714 144.341C254.292 153.916 254.292 169.435 244.714 179.017C235.132 188.598 219.613 188.598 210.028 179.017C202.823 171.805 201.043 161.222 204.691 152.346L171.613 119.268L171.609 206.315C173.944 207.474 176.149 209.015 178.094 210.953C187.673 220.528 187.673 236.047 178.094 245.636C168.513 255.214 152.987 255.214 143.419 245.636C133.841 236.047 133.841 220.528 143.419 210.953C145.785 208.59 148.524 206.803 151.445 205.602V117.744C148.524 116.551 145.789 114.774 143.419 112.394C136.161 105.147 134.416 94.4975 138.135 85.5864L101.858 49.3027L6.05797 145.096C-1.99296 153.15 -1.99296 166.201 6.05797 174.248L145.775 313.958C153.819 322.006 166.866 322.006 174.92 313.958L313.984 174.898C322.032 166.847 322.032 153.789 313.984 145.742Z" fill="#DE4C36"/>
</g>
<defs>
<clipPath id="clip0">
<rect width="320" height="320" fill="white" transform="translate(0.019043)"/>
</clipPath>
</defs>
</svg>
