<svg width="289" height="327" viewBox="0 0 289 327" fill="none" xmlns="http://www.w3.org/2000/svg">
<g clip-path="url(#clip0)">
<path d="M288.205 7L262.499 294.967L146.952 327L31.7233 295.012L6.04504 7H288.205Z" fill="#E44D26"/>
<path d="M147.125 302.515L240.493 276.63L262.46 30.5491H147.125V302.515Z" fill="#F16529"/>
<path d="M97.1546 101.197H147.125V65.873H58.5505L59.396 75.3498L68.0778 172.692H147.125V137.369H100.383L97.1546 101.197Z" fill="#EBEBEB"/>
<path d="M105.115 190.354H69.6561L74.6049 245.817L146.962 265.904L147.125 265.858V229.107L146.97 229.148L107.63 218.526L105.115 190.354Z" fill="#EBEBEB"/>
<path d="M147.003 172.692H190.5L186.4 218.504L147.003 229.137V265.887L219.418 245.817L219.949 239.849L228.25 146.854L229.112 137.369H147.003V172.692Z" fill="white"/>
<path d="M147.003 101.111V101.197H232.326L233.034 93.2572L234.644 75.3498L235.489 65.873H147.003V101.111Z" fill="white"/>
</g>
<defs>
<clipPath id="clip0">
<rect width="288" height="327" fill="white" transform="translate(0.0450439)"/>
</clipPath>
</defs>
</svg>
