<svg width="321" height="320" viewBox="0 0 321 320" fill="none" xmlns="http://www.w3.org/2000/svg">
<g clip-path="url(#clip0)">
<path d="M320.045 0H0.0450439V320H320.045V0Z" fill="#F7DF1E"/>
<path d="M215.004 250.001C221.45 260.526 229.836 268.262 244.667 268.262C257.127 268.262 265.086 262.034 265.086 253.43C265.086 243.119 256.909 239.467 243.194 233.468L235.677 230.242C213.978 220.998 199.563 209.417 199.563 184.935C199.563 162.382 216.746 145.214 243.601 145.214C262.719 145.214 276.464 151.868 286.369 169.29L262.953 184.325C257.797 175.081 252.236 171.439 243.601 171.439C234.793 171.439 229.211 177.026 229.211 184.325C229.211 193.346 234.798 196.998 247.7 202.585L255.217 205.806C280.766 216.762 295.192 227.931 295.192 253.044C295.192 280.117 273.924 294.948 245.363 294.948C217.437 294.948 199.395 281.641 190.567 264.198L215.004 250.001ZM108.779 252.607C113.503 260.988 117.8 268.074 128.131 268.074C138.011 268.074 144.243 264.208 144.243 249.178V146.931H174.313V249.585C174.313 280.721 156.058 294.893 129.411 294.893C105.335 294.893 91.3924 282.433 84.3016 267.426L108.779 252.607Z" fill="black"/>
</g>
<defs>
<clipPath id="clip0">
<rect x="0.0450439" width="320" height="320" rx="50" fill="white"/>
</clipPath>
</defs>
</svg>
