<svg width="321" height="320" viewBox="0 0 321 320" fill="none" xmlns="http://www.w3.org/2000/svg">
<g clip-path="url(#clip0)">
<path d="M149.566 0.0861131C148.878 0.148665 146.688 0.367597 144.717 0.523976C99.2668 4.62113 56.694 29.1415 29.7302 66.829C14.7155 87.7839 5.11237 111.554 1.48383 136.731C0.201325 145.519 0.0449219 148.115 0.0449219 160.031C0.0449219 171.947 0.201325 174.543 1.48383 183.332C10.1798 243.413 52.9403 293.892 110.934 312.595C121.32 315.942 132.268 318.225 144.717 319.601C149.566 320.133 170.524 320.133 175.372 319.601C196.862 317.224 215.067 311.907 233.022 302.743C235.775 301.336 236.307 300.961 235.932 300.648C235.681 300.46 223.951 284.729 209.875 265.713L184.287 231.153L152.225 183.707C134.583 157.623 120.068 136.293 119.943 136.293C119.818 136.262 119.693 157.342 119.63 183.082C119.537 228.15 119.505 229.964 118.942 231.028C118.129 232.56 117.503 233.186 116.19 233.874C115.189 234.374 114.313 234.468 109.589 234.468H104.178L102.739 233.561C101.801 232.967 101.112 232.185 100.643 231.278L99.9863 229.871L100.049 167.162L100.143 104.423L101.112 103.203C101.613 102.546 102.676 101.702 103.427 101.295C104.71 100.67 105.21 100.607 110.622 100.607C117.003 100.607 118.066 100.857 119.724 102.671C120.194 103.172 137.554 129.318 158.324 160.813C179.095 192.308 207.498 235.313 221.449 256.424L246.786 294.799L248.068 293.955C259.423 286.574 271.435 276.065 280.944 265.119C301.183 241.88 314.227 213.544 318.606 183.332C319.889 174.543 320.045 171.947 320.045 160.031C320.045 148.115 319.889 145.519 318.606 136.731C309.91 76.6496 267.15 26.1703 209.155 7.46724C198.927 4.15199 188.041 1.86884 175.842 0.492701C172.839 0.179941 152.162 -0.164094 149.566 0.0861131ZM215.067 96.8539C216.569 97.6045 217.789 99.0432 218.227 100.544C218.477 101.358 218.54 118.747 218.477 157.936L218.383 214.17L208.467 198.97L198.52 183.77V142.892C198.52 116.464 198.645 101.608 198.833 100.889C199.333 99.137 200.428 97.7609 201.93 96.9477C203.212 96.2909 203.681 96.2284 208.592 96.2284C213.222 96.2284 214.035 96.2909 215.067 96.8539Z" fill="#1EB306"/>
</g>
<defs>
<clipPath id="clip0">
<rect width="320" height="320" fill="white" transform="translate(0.0449219)"/>
</clipPath>
</defs>
</svg>
