<svg width="322" height="320" viewBox="0 0 322 320" fill="none" xmlns="http://www.w3.org/2000/svg">
<path d="M159.155 0.0905762C77.854 0.090582 82.931 35.3724 82.931 35.3724L83.0216 71.924H160.605V82.8985H52.2057C52.2057 82.8985 0.181274 76.9943 0.181274 159.085C0.181269 241.177 45.5894 238.265 45.5894 238.265H72.6892V200.172C72.6892 200.172 71.2285 154.732 117.372 154.732H194.321C194.321 154.732 237.554 155.431 237.554 112.92V42.6283C237.554 42.6283 244.118 0.0905762 159.155 0.0905762ZM116.375 24.6699C124.094 24.6699 130.333 30.9131 130.333 38.6375C130.333 46.362 124.094 52.6051 116.375 52.6051C108.656 52.6051 102.417 46.362 102.417 38.6375C102.417 30.9131 108.656 24.6699 116.375 24.6699Z" fill="url(#paint0_linear)"/>
<path d="M161.464 318.904C242.765 318.904 237.688 283.622 237.688 283.622L237.597 247.07H160.014V236.096H268.413C268.413 236.096 320.438 242 320.438 159.909C320.438 77.8175 275.029 80.7286 275.029 80.7286H247.93V118.822C247.93 118.822 249.39 164.262 203.247 164.262H126.298C126.298 164.262 83.0647 163.563 83.0647 206.074V276.366C83.0647 276.366 76.5007 318.904 161.464 318.904ZM204.244 294.324C196.525 294.324 190.286 288.081 190.286 280.357C190.286 272.632 196.525 266.389 204.244 266.389C211.963 266.389 218.201 272.632 218.201 280.357C218.201 288.081 211.963 294.324 204.244 294.324Z" fill="url(#paint1_linear)"/>
<defs>
<linearGradient id="paint0_linear" x1="30.9585" y1="28.7669" x2="189.776" y2="185.89" gradientUnits="userSpaceOnUse">
<stop stop-color="#387EB8"/>
<stop offset="1" stop-color="#366994"/>
</linearGradient>
<linearGradient id="paint1_linear" x1="128.373" y1="129.733" x2="298.921" y2="290.844" gradientUnits="userSpaceOnUse">
<stop stop-color="#FFE052"/>
<stop offset="1" stop-color="#FFC331"/>
</linearGradient>
</defs>
</svg>
