<svg width="360" height="320" viewBox="0 0 360 320" fill="none" xmlns="http://www.w3.org/2000/svg">
<g clip-path="url(#clip0)">
<path d="M295.46 103.612C291.733 102.329 287.871 101.115 283.894 99.9674C284.548 97.2998 285.147 94.6668 285.681 92.0785C294.436 49.5788 288.712 15.3407 269.164 4.06806C250.42 -6.74091 219.766 4.52918 188.807 31.472C185.83 34.0628 182.844 36.8058 179.86 39.6805C177.872 37.7785 175.887 35.9405 173.907 34.1824C141.461 5.37337 108.939 -6.76713 89.41 4.53813C70.6841 15.3784 65.1386 47.5655 73.0197 87.8428C73.7807 91.7332 74.6703 95.7061 75.6764 99.7454C71.0735 101.052 66.63 102.445 62.3783 103.927C24.3387 117.189 0.0449219 137.974 0.0449219 159.534C0.0449219 181.801 26.1243 204.135 65.7455 217.678C68.8722 218.746 72.1166 219.757 75.4602 220.716C74.3749 225.085 73.4309 229.366 72.6385 233.542C65.1238 273.12 70.9923 304.547 89.6683 315.319C108.959 326.443 141.334 315.008 172.859 287.452C175.351 285.273 177.852 282.963 180.357 280.542C183.604 283.669 186.845 286.628 190.07 289.403C220.606 315.68 250.765 326.291 269.424 315.489C288.695 304.333 294.958 270.573 286.827 229.499C286.206 226.362 285.483 223.157 284.672 219.896C286.945 219.223 289.177 218.53 291.354 217.808C332.544 204.161 359.343 182.098 359.343 159.534C359.343 137.896 334.266 116.971 295.46 103.612ZM286.526 203.239C284.562 203.889 282.546 204.518 280.492 205.127C275.944 190.732 269.807 175.424 262.297 159.609C269.464 144.17 275.364 129.058 279.784 114.756C283.459 115.82 287.026 116.942 290.464 118.125C323.713 129.571 343.994 146.494 343.994 159.534C343.994 173.424 322.091 191.454 286.526 203.239ZM271.77 232.48C275.365 250.642 275.879 267.063 273.497 279.9C271.357 291.435 267.053 299.126 261.732 302.206C250.409 308.76 226.195 300.241 200.08 277.768C197.087 275.192 194.071 272.441 191.046 269.53C201.17 258.458 211.288 245.586 221.163 231.29C238.533 229.749 254.943 227.229 269.825 223.789C270.558 226.745 271.209 229.645 271.77 232.48ZM122.538 301.073C111.475 304.98 102.664 305.092 97.3378 302.021C86.0044 295.484 81.2929 270.252 87.7197 236.404C88.4558 232.528 89.3319 228.546 90.3418 224.476C105.06 227.731 121.35 230.073 138.761 231.484C148.703 245.473 159.113 258.331 169.605 269.59C167.312 271.802 165.029 273.909 162.759 275.894C148.819 288.08 134.849 296.725 122.538 301.073ZM70.7096 203.154C53.1899 197.166 38.7215 189.383 28.804 180.89C19.8926 173.259 15.3934 165.682 15.3934 159.534C15.3934 146.451 34.8989 129.763 67.4307 118.421C71.378 117.045 75.5101 115.748 79.7982 114.529C84.2942 129.154 90.1921 144.445 97.3096 159.908C90.1 175.599 84.1184 191.134 79.5782 205.931C76.5212 205.052 73.5595 204.127 70.7096 203.154ZM88.0829 84.8952C81.3306 50.3865 85.8151 24.3545 97.0999 17.8221C109.12 10.8632 135.7 20.7852 163.715 45.6603C165.506 47.2502 167.303 48.9143 169.106 50.636C158.667 61.8453 148.352 74.6068 138.498 88.5131C121.6 90.0793 105.425 92.5953 90.5528 95.9644C89.6178 92.2033 88.7896 88.508 88.0829 84.8952ZM243.068 123.165C239.513 117.024 235.863 111.028 232.142 105.196C243.606 106.645 254.589 108.569 264.904 110.923C261.807 120.848 257.948 131.225 253.404 141.862C250.145 135.674 246.698 129.436 243.068 123.165ZM179.865 61.6055C186.945 69.2755 194.035 77.8391 201.009 87.1304C193.981 86.7985 186.867 86.6258 179.694 86.6258C172.589 86.6258 165.527 86.7946 158.543 87.1208C165.524 77.9158 172.675 69.3638 179.865 61.6055ZM116.258 123.271C112.707 129.429 109.324 135.634 106.116 141.851C101.646 131.25 97.8219 120.826 94.6984 110.761C104.95 108.467 115.881 106.591 127.272 105.169C123.499 111.055 119.819 117.095 116.258 123.27V123.271ZM127.6 214.994C115.832 213.681 104.735 211.901 94.4867 209.671C97.6601 199.426 101.568 188.779 106.133 177.95C109.349 184.162 112.746 190.37 116.319 196.541H116.32C119.959 202.829 123.73 208.988 127.6 214.994ZM180.29 258.545C173.015 250.696 165.759 242.013 158.672 232.674C165.552 232.944 172.566 233.082 179.694 233.082C187.017 233.082 194.257 232.917 201.383 232.6C194.386 242.107 187.322 250.803 180.29 258.545ZM253.551 177.398C258.353 188.344 262.401 198.935 265.616 209.005C255.198 211.382 243.951 213.296 232.1 214.719C235.83 208.808 239.511 202.709 243.129 196.436C246.789 190.089 250.265 183.733 253.551 177.398ZM229.834 188.768C224.217 198.506 218.451 207.802 212.597 216.578C201.936 217.34 190.921 217.733 179.694 217.733C168.513 217.733 157.637 217.385 147.164 216.706C141.074 207.815 135.182 198.491 129.602 188.851H129.603C124.037 179.238 118.914 169.543 114.272 159.902C118.913 150.24 124.022 140.534 129.556 130.937L129.555 130.939C135.104 121.317 140.943 112.039 146.977 103.204C157.662 102.396 168.62 101.975 179.693 101.975H179.694C190.818 101.975 201.789 102.4 212.471 103.214C218.413 111.984 224.213 121.233 229.783 130.856C235.417 140.587 240.592 150.229 245.272 159.684C240.606 169.302 235.443 179.041 229.834 188.768ZM261.497 17.3655C273.529 24.3039 278.208 52.2866 270.648 88.9806C270.166 91.322 269.623 93.7068 269.034 96.1237C254.127 92.6842 237.94 90.1247 220.993 88.5348C211.12 74.4757 200.889 61.6944 190.62 50.6289C193.381 47.9729 196.138 45.4403 198.884 43.0503C225.409 19.9659 250.201 10.8517 261.497 17.3655ZM179.694 127.45C197.413 127.45 211.778 141.814 211.778 159.534C211.778 177.253 197.413 191.618 179.694 191.618C161.975 191.618 147.61 177.253 147.61 159.534C147.61 141.814 161.975 127.45 179.694 127.45Z" fill="#00D8FF"/>
</g>
<defs>
<clipPath id="clip0">
<rect width="359" height="320" fill="white" transform="translate(0.0449219)"/>
</clipPath>
</defs>
</svg>
