<svg width="267" height="320" viewBox="0 0 267 320" fill="none" xmlns="http://www.w3.org/2000/svg">
<g clip-path="url(#clip0)">
<path d="M249.065 42.2927C219.383 -0.188975 160.763 -12.7807 118.377 14.2245L43.9378 61.6681C23.6044 74.4603 9.59902 95.2248 5.35606 118.87C1.80514 138.567 4.92619 158.887 14.2251 176.611C7.85323 186.277 3.50736 197.134 1.45011 208.527C-2.83387 232.626 2.76998 257.434 16.9966 277.352C46.6842 319.838 105.305 332.424 147.684 305.42L222.123 257.977C242.458 245.186 256.464 224.421 260.705 200.775C264.256 181.078 261.137 160.759 251.843 143.033C258.213 133.367 262.557 122.51 264.612 111.118C268.899 87.0193 263.295 62.2094 249.066 42.2927" fill="#FF3E00"/>
<path d="M111.098 281.394C87.0965 287.634 61.7504 278.239 47.6152 257.862C39.0556 245.882 35.6837 230.958 38.2611 216.46C38.6932 214.104 39.2877 211.781 40.0405 209.507L41.4428 205.231L45.2577 208.033C54.0679 214.507 63.9187 219.428 74.3854 222.586L77.1529 223.426L76.8979 226.188C76.5598 230.117 77.6237 234.039 79.9012 237.259C84.1551 243.397 91.7864 246.23 99.0148 244.353C100.633 243.921 102.176 243.243 103.588 242.343L178.052 194.891C181.736 192.571 184.275 188.81 185.048 184.525C185.82 180.156 184.804 175.66 182.229 172.046C177.972 165.907 170.339 163.073 163.108 164.948C161.492 165.381 159.951 166.058 158.54 166.957L130.125 185.07C125.453 188.041 120.354 190.28 115.005 191.71C91.0036 197.951 65.6578 188.556 51.5229 168.179C42.9629 156.198 39.591 141.274 42.1688 126.777C44.7205 112.555 53.1462 100.065 65.3785 92.373L139.835 44.9168C144.51 41.9411 149.612 39.6991 154.966 38.2688C178.967 32.0285 204.312 41.4234 218.447 61.7999C227.007 73.7807 230.379 88.7048 227.802 103.202C227.368 105.558 226.773 107.881 226.022 110.155L224.62 114.431L220.807 111.634C211.997 105.156 202.146 100.232 191.677 97.074L188.91 96.2341L189.165 93.4721C189.5 89.5431 188.436 85.622 186.162 82.4011C181.908 76.2631 174.276 73.4307 167.048 75.3069C165.43 75.7394 163.887 76.4173 162.474 77.3169L88.0109 124.771C84.3274 127.089 81.79 130.851 81.0203 135.134C80.2437 139.503 81.2578 144.001 83.834 147.615C88.0905 153.754 95.7236 156.587 102.955 154.713C104.573 154.279 106.115 153.602 107.528 152.703L135.939 134.596C140.61 131.621 145.709 129.38 151.058 127.951C175.059 121.71 200.405 131.105 214.54 151.482C223.1 163.463 226.472 178.387 223.894 192.884C221.341 207.107 212.916 219.598 200.685 227.293L126.227 274.746C121.553 277.721 116.45 279.963 111.097 281.394" fill="white"/>
</g>
<defs>
<clipPath id="clip0">
<rect width="265.974" height="320" fill="white" transform="translate(0.0449219)"/>
</clipPath>
</defs>
</svg>
